<mxfile host="app.diagrams.net" agent="Mozilla/5.0 (Windows NT 10.0; Win64; x64; rv:140.0) Gecko/20100101 Firefox/140.0" version="28.2.0">
  <diagram name="Seite-1" id="V6rXY77AjFvY0oRYciyx">
    <mxGraphModel dx="689" dy="346" grid="1" gridSize="10" guides="1" tooltips="1" connect="1" arrows="1" fold="1" page="1" pageScale="1" pageWidth="827" pageHeight="1169" math="0" shadow="0">
      <root>
        <mxCell id="0" />
        <mxCell id="1" parent="0" />
        <mxCell id="ALDRsHmGj8zdrCS2ko75-3" value="&lt;div&gt;Export csl Datei mit allen relevanten Informationen&lt;/div&gt;&lt;div&gt;wird je Semester erstellt&lt;/div&gt;" style="rounded=1;whiteSpace=wrap;html=1;fillColor=none;strokeColor=#82b366;" vertex="1" parent="1">
          <mxGeometry x="50" y="70" width="150" height="70" as="geometry" />
        </mxCell>
        <mxCell id="ALDRsHmGj8zdrCS2ko75-5" value="" style="edgeStyle=orthogonalEdgeStyle;rounded=0;orthogonalLoop=1;jettySize=auto;html=1;fillColor=#f5f5f5;strokeColor=#666666;" edge="1" parent="1" source="ALDRsHmGj8zdrCS2ko75-1" target="ALDRsHmGj8zdrCS2ko75-4">
          <mxGeometry relative="1" as="geometry" />
        </mxCell>
        <mxCell id="ALDRsHmGj8zdrCS2ko75-1" value="Campusmanagementsystem" style="rounded=1;whiteSpace=wrap;html=1;fillColor=#d5e8d4;strokeColor=#82b366;sketch=1;curveFitting=1;jiggle=2;" vertex="1" parent="1">
          <mxGeometry x="20" y="30" width="160" height="50" as="geometry" />
        </mxCell>
        <mxCell id="ALDRsHmGj8zdrCS2ko75-4" value="Up Load fÃ¼r csl" style="rounded=1;whiteSpace=wrap;html=1;fillColor=#d5e8d4;strokeColor=#82b366;sketch=1;curveFitting=1;jiggle=2;" vertex="1" parent="1">
          <mxGeometry x="280" y="25" width="120" height="60" as="geometry" />
        </mxCell>
        <mxCell id="ALDRsHmGj8zdrCS2ko75-6" value="Upload der csl&amp;nbsp;" style="rounded=1;whiteSpace=wrap;html=1;fillColor=none;strokeColor=#82b366;" vertex="1" parent="1">
          <mxGeometry x="300" y="70" width="150" height="70" as="geometry" />
        </mxCell>
      </root>
    </mxGraphModel>
  </diagram>
</mxfile>
